<svg xmlns="http://www.w3.org/2000/svg" viewBox="0 0 100 100" width="100" height="100">
  <circle cx="50" cy="50" r="50" fill="#ff6b00"/>
  <path d="M 68.647 62.195 L 68.647 80.647 L 54.767 80.647 L 54.767 62.835 C 54.767 58.782 53.647 56.489 50.872 56.489 C 47.992 56.489 44.846 58.622 43.406 63.848 L 43.406 80.647 L 29.526 80.647 L 29.526 62.835 C 29.526 58.782 28.406 56.489 25.632 56.489 C 22.752 56.489 19.605 58.622 18.165 63.848 L 18.165 80.647 L 7.338 80.647 L 7.338 49.342 L 15.605 49.342 L 15.605 53.449 C 18.005 50.196 21.632 48.062 25.632 48.062 C 30.272 48.062 33.685 50.196 35.551 54.143 C 38.378 50.196 42.485 48.062 47.772 48.062 C 55.452 48.062 59.985 52.862 59.985 60.115 L 59.985 62.195 C 59.985 62.889 60.572 63.475 61.265 63.475 C 61.958 63.475 62.545 62.889 62.545 62.195 L 62.545 36.168 C 62.545 27.208 55.772 19.848 47.506 19.848 C 39.239 19.848 32.466 27.208 32.466 36.168 L 32.466 39.528 C 32.466 40.542 33.266 41.342 34.279 41.342 C 35.292 41.342 36.092 40.542 36.092 39.528 L 36.092 36.168 C 36.092 29.182 41.212 23.475 47.506 23.475 C 53.799 23.475 58.919 29.182 58.919 36.168 L 58.919 46.568 C 55.772 44.976 52.199 44.115 48.359 44.115 C 33.685 44.115 21.632 54.303 21.632 67.208 C 21.632 80.114 33.685 90.302 48.359 90.302 C 60.519 90.302 70.812 83.103 74.225 73.182 L 87.238 73.182 C 84.838 88.089 71.932 99.182 56.412 99.182 C 34.005 99.182 17.632 82.755 17.632 67.208 C 17.632 51.662 34.005 35.235 56.412 35.235 C 78.818 35.235 95.192 51.662 95.192 67.208 C 95.192 69.822 93.378 72.168 90.925 72.488 L 78.119 74.008 C 76.572 74.195 75.399 75.608 75.399 77.128 L 75.399 80.647 L 68.647 80.647 Z" fill="#ffffff" fill-rule="evenodd"/>
</svg>
