<svg xmlns="http://www.w3.org/2000/svg" xmlns:xlink="http://www.w3.org/1999/xlink" width="40" zoomAndPan="magnify" viewBox="0 0 30 30.000001" height="40" preserveAspectRatio="xMidYMid meet" version="1.0"><defs><clipPath id="516d0afe81"><path d="M 0.484375 0 L 29.515625 0 L 29.515625 29.03125 L 0.484375 29.03125 Z M 0.484375 0 " clip-rule="nonzero"/></clipPath><clipPath id="f023302c7b"><path d="M 17 2.160156 L 23 2.160156 L 23 7 L 17 7 Z M 17 2.160156 " clip-rule="nonzero"/></clipPath><clipPath id="763c92e349"><path d="M 12 6 L 27.84375 6 L 27.84375 26.835938 L 12 26.835938 Z M 12 6 " clip-rule="nonzero"/></clipPath><clipPath id="2fda7e287f"><path d="M 2.4375 11 L 8 11 L 8 17 L 2.4375 17 Z M 2.4375 11 " clip-rule="nonzero"/></clipPath><clipPath id="069a66dbf1"><path d="M 3 14 L 21 14 L 21 26.835938 L 3 26.835938 Z M 3 14 " clip-rule="nonzero"/></clipPath></defs><g clip-path="url(#f023302c7b)"><path fill="#b5820e" d="M 19.214844 4.199219 C 19.433594 4.875 19.347656 5.851562 20.625 6.148438 C 22.230469 6.523438 22.929688 5.21875 22.929688 5.21875 C 20.371094 5.496094 21.265625 2.667969 19.53125 2.410156 C 17.917969 2.171875 17.570312 3.828125 17.570312 3.828125 C 17.664062 3.554688 18.855469 3.089844 19.214844 4.199219 Z M 19.214844 4.199219 " fill-opacity="1" fill-rule="nonzero"/></g><path fill="#b5820e" d="M 15.332031 8.191406 C 15.625 8.304688 15.929688 8.355469 16.246094 8.34375 C 16.558594 8.335938 16.859375 8.265625 17.144531 8.136719 C 17.429688 8.007812 17.679688 7.828125 17.894531 7.597656 C 18.109375 7.371094 18.273438 7.109375 18.382812 6.816406 C 18.496094 6.523438 18.546875 6.21875 18.535156 5.90625 C 18.527344 5.589844 18.457031 5.292969 18.328125 5.003906 C 18.199219 4.71875 18.019531 4.46875 17.792969 4.253906 C 17.5625 4.039062 17.300781 3.875 17.007812 3.765625 C 16.714844 3.652344 16.410156 3.601562 16.097656 3.613281 C 15.785156 3.621094 15.484375 3.691406 15.199219 3.820312 C 14.910156 3.949219 14.660156 4.128906 14.445312 4.359375 C 14.230469 4.585938 14.066406 4.847656 13.957031 5.140625 C 13.847656 5.433594 13.796875 5.738281 13.804688 6.050781 C 13.816406 6.367188 13.882812 6.664062 14.011719 6.953125 C 14.140625 7.238281 14.320312 7.488281 14.550781 7.703125 C 14.777344 7.917969 15.039062 8.082031 15.332031 8.191406 Z M 15.332031 8.191406 " fill-opacity="1" fill-rule="nonzero"/><g clip-path="url(#763c92e349)"><path fill="#b5820e" d="M 13.53125 14.964844 C 13.632812 14.914062 13.742188 14.855469 13.847656 14.792969 C 13.9375 14.742188 14.027344 14.691406 14.121094 14.632812 C 16.628906 13.117188 20.488281 9.667969 20.488281 9.667969 L 19.453125 11.328125 C 19.921875 11.628906 20.574219 11.519531 20.574219 11.519531 L 22.636719 12.738281 L 23.011719 14.414062 C 20.859375 15.546875 19.789062 16.164062 18.398438 17.453125 C 18.160156 17.671875 18.011719 17.9375 17.949219 18.253906 C 17.886719 18.570312 17.925781 18.871094 18.0625 19.164062 C 19.046875 21.199219 20.507812 23.675781 22.292969 26.339844 C 22.304688 25.324219 21.863281 21.722656 21.359375 20.679688 C 21.136719 20.214844 20.789062 19.683594 20.332031 19.09375 L 20.105469 18.808594 C 20.105469 18.808594 25.191406 17.425781 25.300781 17.367188 C 26.851562 16.867188 27.558594 15.914062 27.410156 14.640625 C 27.195312 13.1875 25.984375 11.550781 24.589844 9.871094 C 23 7.964844 21.769531 7.078125 20.691406 6.953125 C 19.488281 6.8125 18.59375 7.542969 18.042969 8.226562 L 12.773438 14.773438 L 12.507812 15.101562 L 12.328125 15.328125 C 12.59375 15.375 13.015625 15.230469 13.53125 14.964844 Z M 13.53125 14.964844 " fill-opacity="1" fill-rule="nonzero"/></g><path fill="#b5820e" d="M 9.65625 18.863281 C 9.449219 18.640625 9.292969 18.386719 9.1875 18.105469 C 8.90625 18.242188 8.628906 18.382812 8.359375 18.523438 C 8.753906 18.785156 9.1875 18.898438 9.65625 18.863281 Z M 9.65625 18.863281 " fill-opacity="1" fill-rule="nonzero"/><path fill="#b5820e" d="M 8.347656 15.238281 C 8.230469 15.394531 8.082031 15.546875 7.9375 15.707031 C 8.609375 15.542969 9.355469 15.378906 10.117188 15.230469 C 10.160156 14.960938 10.117188 14.707031 9.992188 14.46875 C 9.253906 13.011719 7.699219 13.683594 7.699219 13.683594 C 7.976562 13.601562 9.046875 14.304688 8.347656 15.238281 Z M 8.347656 15.238281 " fill-opacity="1" fill-rule="nonzero"/><g clip-path="url(#2fda7e287f)"><path fill="#b5820e" d="M 3.644531 15.800781 C 3.914062 15.964844 4.203125 16.074219 4.511719 16.125 C 4.820312 16.171875 5.128906 16.160156 5.433594 16.089844 C 5.738281 16.015625 6.019531 15.886719 6.273438 15.703125 C 6.527344 15.519531 6.738281 15.296875 6.902344 15.027344 C 7.066406 14.761719 7.171875 14.472656 7.222656 14.164062 C 7.273438 13.851562 7.261719 13.546875 7.1875 13.238281 C 7.117188 12.933594 6.988281 12.65625 6.804688 12.398438 C 6.621094 12.144531 6.394531 11.9375 6.128906 11.773438 C 5.859375 11.605469 5.574219 11.5 5.261719 11.449219 C 4.953125 11.402344 4.644531 11.410156 4.339844 11.484375 C 4.035156 11.558594 3.753906 11.683594 3.5 11.867188 C 3.246094 12.054688 3.035156 12.277344 2.871094 12.546875 C 2.707031 12.8125 2.601562 13.101562 2.550781 13.410156 C 2.5 13.722656 2.511719 14.027344 2.585938 14.335938 C 2.65625 14.640625 2.785156 14.917969 2.96875 15.171875 C 3.152344 15.429688 3.378906 15.636719 3.644531 15.800781 Z M 3.644531 15.800781 " fill-opacity="1" fill-rule="nonzero"/></g><g clip-path="url(#069a66dbf1)"><path fill="#b5820e" d="M 4.464844 17.96875 C 4.140625 18.898438 3.738281 20.066406 3.507812 20.757812 C 3.386719 21.117188 3.441406 21.492188 3.648438 21.761719 C 3.839844 22.007812 4.070312 22.210938 4.335938 22.371094 C 4.433594 22.429688 4.546875 22.582031 4.730469 22.828125 C 5.402344 23.730469 6.96875 25.835938 10.359375 26.503906 C 10.964844 26.625 17.097656 26.863281 19.410156 26.609375 C 19.988281 26.546875 20.421875 26.292969 20.632812 25.890625 C 20.863281 25.453125 20.804688 24.875 20.472656 24.257812 C 19.507812 22.460938 18.003906 20.257812 16.132812 17.890625 C 16.121094 17.875 16.113281 17.863281 16.105469 17.855469 C 16.117188 18.21875 16.257812 20.785156 17.570312 23.636719 L 17.6875 23.890625 L 17.410156 23.835938 C 16.988281 23.753906 16.308594 23.660156 15.523438 23.554688 C 14.734375 23.445312 13.839844 23.324219 12.949219 23.179688 L 12.910156 23.171875 L 12.878906 23.148438 C 11.773438 22.203125 10.554688 22.308594 9.734375 22.464844 C 9.683594 22.46875 7.671875 22.414062 7.40625 19.492188 C 7.386719 19.265625 7.429688 19.050781 7.535156 18.851562 C 7.644531 18.648438 7.800781 18.496094 8 18.390625 C 8.039062 18.367188 8.078125 18.347656 8.113281 18.328125 C 8.441406 18.15625 8.777344 17.988281 9.117188 17.820312 C 11.714844 16.542969 14.554688 15.429688 15.363281 15.117188 C 15.191406 15.015625 14.878906 14.914062 14.308594 14.914062 C 14.078125 14.917969 13.847656 14.929688 13.617188 14.957031 C 13.589844 14.960938 13.558594 14.964844 13.53125 14.964844 C 13.015625 15.230469 12.59375 15.375 12.328125 15.328125 L 12.507812 15.101562 C 11.71875 15.21875 10.867188 15.371094 10.035156 15.535156 C 9.191406 15.707031 8.371094 15.890625 7.65625 16.070312 C 7.054688 16.222656 6.527344 16.367188 6.128906 16.5 C 5.289062 16.773438 4.699219 17.296875 4.464844 17.96875 Z M 4.464844 17.96875 " fill-opacity="1" fill-rule="nonzero"/></g></svg>