<svg xmlns="http://www.w3.org/2000/svg" viewBox="0 0 200 200" width="200" height="200">
  <!-- Orange circle background, no gradient -->
  <circle cx="100" cy="100" r="100" fill="#ff8c42"/>
  
  <!-- White silhouette of Thai massage maneuver -->
  <g fill="#ffffff">
    <!-- Therapist head -->
    <circle cx="75" cy="65" r="12"/>
    <!-- Therapist body -->
    <path d="M 65 78 Q 63 85 70 95 L 75 95 L 80 95 Q 87 85 85 78 Z"/>
    <!-- Therapist arms -->
    <path d="M 65 82 Q 50 88 48 100 L 55 103 Q 58 95 65 90 Z"/>
    <path d="M 85 82 Q 100 95 102 105 L 95 107 Q 92 98 85 90 Z"/>
    <!-- Therapist legs -->
    <path d="M 70 95 L 65 120 L 72 120 Z"/>
    <path d="M 80 95 L 92 120 L 85 120 Z"/>
    
    <!-- Client head -->
    <circle cx="130" cy="95" r="11"/>
    <!-- Client body stretched -->
    <path d="M 120 107 Q 118 115 125 125 L 135 125 Q 142 115 140 107 Z"/>
    <!-- Client arms extended -->
    <path d="M 120 110 Q 105 115 100 118 L 103 125 Q 110 120 120 117 Z"/>
    <path d="M 140 110 Q 155 115 160 118 L 157 125 Q 150 120 140 117 Z"/>
    <!-- Client legs -->
    <path d="M 125 125 L 115 145 L 122 145 Z"/>
    <path d="M 135 125 L 145 145 L 138 145 Z"/>
  </g>
</svg>
