<svg xmlns="http://www.w3.org/2000/svg" xmlns:xlink="http://www.w3.org/1999/xlink" width="40" zoomAndPan="magnify" viewBox="0 0 30 30.000001" height="40" preserveAspectRatio="xMidYMid meet" version="1.0"><defs><clipPath id="f85e6d358d"><path d="M 0.484375 0 L 29.515625 0 L 29.515625 29.03125 L 0.484375 29.03125 Z M 0.484375 0 " clip-rule="nonzero"/></clipPath><clipPath id="388ac65a96"><path d="M 12 20 L 15 20 L 15 24.753906 L 12 24.753906 Z M 12 20 " clip-rule="nonzero"/></clipPath><clipPath id="21ae0d3a71"><path d="M 17 20 L 20 20 L 20 24.753906 L 17 24.753906 Z M 17 20 " clip-rule="nonzero"/></clipPath><clipPath id="355ca69435"><path d="M 14 4.429688 L 18 4.429688 L 18 9 L 14 9 Z M 14 4.429688 " clip-rule="nonzero"/></clipPath><clipPath id="eface1b4e4"><path d="M 2.152344 18 L 27.554688 18 L 27.554688 24.753906 L 2.152344 24.753906 Z M 2.152344 18 " clip-rule="nonzero"/></clipPath></defs><path fill="#b5820e" d="M 14.039062 7.15625 C 13.875 7.4375 13.765625 7.820312 13.761719 8.335938 C 14.007812 8.234375 14.328125 8.128906 14.710938 8.050781 C 14.417969 7.816406 14.183594 7.507812 14.039062 7.15625 Z M 14.039062 7.15625 " fill-opacity="1" fill-rule="nonzero"/><path fill="#b5820e" d="M 16.183594 15.460938 C 16.125 15.429688 16.074219 15.390625 16.027344 15.34375 C 15.984375 15.386719 15.9375 15.421875 15.886719 15.453125 C 15.972656 15.457031 16.070312 15.460938 16.183594 15.460938 Z M 16.183594 15.460938 " fill-opacity="1" fill-rule="nonzero"/><g clip-path="url(#388ac65a96)"><path fill="#b5820e" d="M 12.742188 23.542969 C 12.691406 24.035156 13.050781 24.476562 13.542969 24.527344 C 13.574219 24.53125 13.605469 24.535156 13.636719 24.535156 C 14.09375 24.535156 14.480469 24.191406 14.53125 23.726562 L 14.863281 20.527344 L 13.054688 20.527344 Z M 12.742188 23.542969 " fill-opacity="1" fill-rule="nonzero"/></g><path fill="#b5820e" d="M 14.960938 15.472656 C 15 15.464844 15.039062 15.457031 15.078125 15.453125 C 14.933594 15.367188 14.816406 15.238281 14.75 15.074219 C 14.636719 14.796875 14.148438 14.570312 13.699219 14.382812 C 13.695312 14.394531 13.691406 14.40625 13.691406 14.417969 L 13.574219 15.53125 Z M 14.960938 15.472656 " fill-opacity="1" fill-rule="nonzero"/><g clip-path="url(#21ae0d3a71)"><path fill="#b5820e" d="M 17.527344 23.726562 C 17.574219 24.191406 17.964844 24.535156 18.417969 24.535156 C 18.449219 24.535156 18.480469 24.53125 18.511719 24.527344 C 19.007812 24.476562 19.367188 24.035156 19.316406 23.542969 L 19 20.527344 L 17.191406 20.527344 Z M 17.527344 23.726562 " fill-opacity="1" fill-rule="nonzero"/></g><path fill="#b5820e" d="M 17.007812 15.441406 C 17.472656 15.421875 17.980469 15.386719 18.460938 15.351562 L 18.363281 14.417969 C 18.363281 14.40625 18.359375 14.394531 18.359375 14.378906 C 17.90625 14.570312 17.417969 14.796875 17.308594 15.074219 C 17.242188 15.230469 17.132812 15.355469 16.996094 15.441406 C 17 15.441406 17.003906 15.441406 17.007812 15.441406 Z M 17.007812 15.441406 " fill-opacity="1" fill-rule="nonzero"/><g clip-path="url(#355ca69435)"><path fill="#b5820e" d="M 17.960938 6.363281 C 17.960938 6.621094 17.910156 6.867188 17.8125 7.101562 C 17.714844 7.339844 17.574219 7.550781 17.394531 7.730469 C 17.214844 7.910156 17.003906 8.050781 16.765625 8.148438 C 16.53125 8.246094 16.285156 8.296875 16.027344 8.296875 C 15.769531 8.296875 15.523438 8.246094 15.289062 8.148438 C 15.050781 8.050781 14.84375 7.910156 14.660156 7.730469 C 14.480469 7.550781 14.339844 7.339844 14.242188 7.101562 C 14.144531 6.867188 14.09375 6.621094 14.09375 6.363281 C 14.09375 6.105469 14.144531 5.859375 14.242188 5.625 C 14.339844 5.386719 14.480469 5.179688 14.660156 4.996094 C 14.84375 4.816406 15.050781 4.675781 15.289062 4.578125 C 15.523438 4.480469 15.769531 4.429688 16.027344 4.429688 C 16.285156 4.429688 16.53125 4.480469 16.765625 4.578125 C 17.003906 4.675781 17.214844 4.816406 17.394531 4.996094 C 17.574219 5.179688 17.714844 5.386719 17.8125 5.625 C 17.910156 5.859375 17.960938 6.105469 17.960938 6.363281 Z M 17.960938 6.363281 " fill-opacity="1" fill-rule="nonzero"/></g><path fill="#b5820e" d="M 11.570312 18.226562 C 11.554688 18.171875 11.546875 18.117188 11.546875 18.058594 C 11.523438 17.546875 11.921875 17.113281 12.429688 17.09375 L 19.316406 16.800781 L 19.328125 17.003906 L 12.441406 17.300781 C 12.042969 17.316406 11.734375 17.652344 11.753906 18.050781 C 11.757812 18.195312 11.808594 18.332031 11.890625 18.441406 L 21.4375 18.441406 C 22 17.929688 21.992188 17.222656 21.90625 16.621094 C 21.863281 15.703125 21.054688 15.550781 20.671875 15.53125 C 20.625 15.523438 20.574219 15.519531 20.511719 15.523438 L 5.902344 16.21875 C 5.28125 16.246094 4.800781 16.769531 4.828125 17.390625 C 4.847656 17.917969 5.230469 18.34375 5.726562 18.441406 L 6.523438 18.441406 Z M 11.570312 18.226562 " fill-opacity="1" fill-rule="nonzero"/><path fill="#b5820e" d="M 26.371094 16.453125 C 26.308594 15.335938 25.351562 14.484375 24.238281 14.546875 C 23.121094 14.609375 22.269531 15.5625 22.332031 16.675781 C 22.375 17.488281 22.890625 18.160156 23.597656 18.441406 L 25.101562 18.441406 C 25.886719 18.128906 26.417969 17.34375 26.371094 16.453125 Z M 26.371094 16.453125 " fill-opacity="1" fill-rule="nonzero"/><g clip-path="url(#eface1b4e4)"><path fill="#b5820e" d="M 27.242188 20.257812 C 27.539062 20.257812 27.78125 20.015625 27.78125 19.71875 L 27.78125 19.253906 C 27.78125 18.957031 27.539062 18.710938 27.242188 18.710938 L 2.746094 18.710938 C 2.449219 18.710938 2.207031 18.957031 2.207031 19.253906 L 2.207031 19.71875 C 2.207031 20.015625 2.449219 20.257812 2.746094 20.257812 L 4.074219 20.257812 L 4.074219 24.59375 L 4.894531 24.59375 L 4.894531 20.257812 L 25.09375 20.257812 L 25.09375 24.59375 L 25.914062 24.59375 L 25.914062 20.257812 Z M 27.242188 20.257812 " fill-opacity="1" fill-rule="nonzero"/></g><path fill="#b5820e" d="M 13.582031 14.109375 C 14.140625 14.339844 14.777344 14.597656 14.941406 14.996094 C 15.03125 15.21875 15.25 15.359375 15.480469 15.359375 C 15.554688 15.359375 15.628906 15.34375 15.703125 15.3125 C 15.859375 15.25 15.972656 15.125 16.027344 14.976562 C 16.082031 15.125 16.195312 15.25 16.355469 15.3125 C 16.425781 15.34375 16.5 15.359375 16.574219 15.359375 C 16.804688 15.359375 17.023438 15.21875 17.117188 14.996094 C 17.277344 14.597656 17.914062 14.339844 18.476562 14.109375 C 19.183594 13.820312 20.0625 13.460938 19.917969 12.59375 C 19.835938 12.109375 19.742188 11.667969 19.648438 11.269531 C 19.328125 9.917969 18.984375 9.105469 18.96875 9.0625 C 18.960938 9.042969 18.949219 9.027344 18.941406 9.007812 C 18.902344 8.9375 18.851562 8.878906 18.792969 8.835938 C 18.792969 8.832031 18.796875 8.832031 18.796875 8.832031 C 18.796875 8.832031 18.207031 8.402344 17.097656 8.214844 C 16.785156 8.398438 16.417969 8.503906 16.027344 8.503906 C 15.636719 8.503906 15.273438 8.398438 14.957031 8.214844 C 13.847656 8.402344 13.261719 8.832031 13.261719 8.832031 C 13.203125 8.878906 13.152344 8.9375 13.113281 9.007812 C 13.105469 9.023438 13.097656 9.042969 13.089844 9.0625 C 13.074219 9.09375 12.910156 9.488281 12.703125 10.171875 C 12.679688 10.25 12.65625 10.328125 12.628906 10.414062 C 12.558594 10.667969 12.480469 10.953125 12.40625 11.269531 C 12.3125 11.667969 12.222656 12.109375 12.136719 12.59375 C 11.992188 13.460938 12.871094 13.820312 13.582031 14.109375 Z M 16.617188 11.59375 C 16.644531 11.328125 16.765625 11.105469 16.925781 10.949219 C 16.992188 10.886719 17.054688 11.03125 16.988281 11.09375 C 16.90625 11.171875 16.824219 11.292969 16.78125 11.417969 C 16.667969 11.746094 16.875 11.882812 16.925781 12.167969 C 16.980469 12.453125 16.910156 12.746094 16.746094 12.945312 C 16.6875 13.019531 16.601562 12.902344 16.660156 12.832031 C 16.757812 12.710938 16.839844 12.511719 16.824219 12.332031 C 16.800781 12.0625 16.589844 11.878906 16.617188 11.59375 Z M 15.894531 11.59375 C 15.921875 11.328125 16.042969 11.105469 16.203125 10.949219 C 16.269531 10.886719 16.332031 11.03125 16.265625 11.09375 C 16.183594 11.171875 16.097656 11.292969 16.058594 11.417969 C 15.945312 11.746094 16.148438 11.882812 16.203125 12.167969 C 16.257812 12.453125 16.1875 12.746094 16.023438 12.945312 C 15.964844 13.019531 15.878906 12.902344 15.9375 12.832031 C 16.035156 12.710938 16.117188 12.511719 16.101562 12.332031 C 16.078125 12.0625 15.867188 11.878906 15.894531 11.59375 Z M 15.171875 11.59375 C 15.199219 11.328125 15.320312 11.105469 15.480469 10.949219 C 15.546875 10.886719 15.609375 11.03125 15.542969 11.09375 C 15.460938 11.171875 15.375 11.292969 15.335938 11.417969 C 15.222656 11.746094 15.425781 11.882812 15.480469 12.167969 C 15.535156 12.453125 15.464844 12.746094 15.300781 12.945312 C 15.242188 13.019531 15.15625 12.902344 15.214844 12.832031 C 15.3125 12.710938 15.394531 12.511719 15.378906 12.332031 C 15.355469 12.0625 15.144531 11.878906 15.171875 11.59375 Z M 13.757812 10.726562 C 13.796875 10.589844 13.835938 10.460938 13.875 10.34375 C 14.089844 10.984375 14.273438 11.695312 14.226562 12.199219 C 14.203125 12.445312 14.164062 12.652344 14.117188 12.84375 C 14.78125 13.113281 15.578125 13.445312 16.027344 14.125 C 16.476562 13.445312 17.277344 13.113281 17.941406 12.84375 C 17.894531 12.652344 17.851562 12.445312 17.832031 12.199219 C 17.785156 11.699219 17.964844 10.984375 18.183594 10.34375 C 18.214844 10.453125 18.25 10.566406 18.285156 10.691406 C 18.347656 10.902344 18.414062 11.144531 18.476562 11.40625 C 18.570312 11.785156 18.664062 12.21875 18.75 12.691406 C 18.609375 12.792969 18.269531 12.929688 18.035156 13.027344 C 17.296875 13.328125 16.378906 13.703125 16.035156 14.550781 C 16.03125 14.558594 16.03125 14.5625 16.027344 14.570312 C 16.027344 14.5625 16.023438 14.558594 16.023438 14.550781 C 15.675781 13.703125 14.757812 13.328125 14.023438 13.027344 C 13.785156 12.929688 13.445312 12.792969 13.308594 12.691406 C 13.390625 12.21875 13.484375 11.785156 13.578125 11.40625 C 13.636719 11.15625 13.699219 10.929688 13.757812 10.726562 Z M 13.757812 10.726562 " fill-opacity="1" fill-rule="nonzero"/></svg>