<svg xmlns="http://www.w3.org/2000/svg" xmlns:xlink="http://www.w3.org/1999/xlink" width="40" zoomAndPan="magnify" viewBox="0 0 30 30.000001" height="40" preserveAspectRatio="xMidYMid meet" version="1.0"><defs><clipPath id="d502e9cc7b"><path d="M 0.484375 0 L 29.515625 0 L 29.515625 29.03125 L 0.484375 29.03125 Z M 0.484375 0 " clip-rule="nonzero"/></clipPath><clipPath id="030f8b61b2"><path d="M 18 1.035156 L 26 1.035156 L 26 8 L 18 8 Z M 18 1.035156 " clip-rule="nonzero"/></clipPath><clipPath id="115b0a44bf"><path d="M 0.484375 11 L 21 11 L 21 27.890625 L 0.484375 27.890625 Z M 0.484375 11 " clip-rule="nonzero"/></clipPath><clipPath id="958d2544d7"><path d="M 15 7 L 29.515625 7 L 29.515625 27.890625 L 15 27.890625 Z M 15 7 " clip-rule="nonzero"/></clipPath></defs><g clip-path="url(#030f8b61b2)"><path fill="#b5820e" d="M 21.71875 1.050781 C 23.632812 1.050781 25.175781 2.589844 25.175781 4.5 C 25.003906 9.078125 18.441406 9.082031 18.269531 4.5 C 18.269531 2.589844 19.8125 1.050781 21.71875 1.050781 Z M 21.71875 1.050781 " fill-opacity="1" fill-rule="nonzero"/></g><path fill="#b5820e" d="M 11.082031 8.664062 C 9.40625 8.664062 8.03125 9.914062 7.839844 11.535156 L 11.476562 15.167969 C 15.503906 14.570312 15.175781 8.785156 11.082031 8.664062 Z M 11.082031 8.664062 " fill-opacity="1" fill-rule="nonzero"/><g clip-path="url(#115b0a44bf)"><path fill="#b5820e" d="M 3.359375 22.492188 L 9.664062 24.480469 C 9.734375 24.503906 9.816406 24.523438 9.90625 24.539062 C 10.003906 25.066406 9.507812 25.542969 8.957031 25.359375 C 8.957031 25.359375 2.664062 23.335938 2.664062 23.335938 C 2.269531 23.207031 2.054688 22.871094 2.125 22.617188 C 2.441406 22.5625 3.0625 22.355469 3.359375 22.492188 Z M 14.726562 18.015625 C 14.835938 18.011719 14.925781 18.132812 14.847656 18.339844 L 13.824219 21.082031 C 13.824219 21.09375 13.828125 21.109375 13.832031 21.117188 L 13.828125 21.121094 L 14.589844 26.964844 C 14.085938 26.964844 13.601562 26.660156 13.550781 26.351562 L 12.792969 21.785156 L 14.535156 18.167969 C 14.585938 18.066406 14.660156 18.019531 14.726562 18.015625 Z M 7.417969 13.175781 L 11.992188 17.761719 L 11.378906 18.992188 C 11.253906 18.957031 11.128906 18.886719 11.019531 18.773438 L 6.40625 14.183594 C 5.667969 13.445312 6.785156 12.507812 7.417969 13.175781 Z M 5.722656 12.488281 C 5.074219 13.128906 5.089844 14.199219 5.746094 14.847656 C 6.003906 15.039062 10.75 20.007812 10.953125 19.839844 L 10.066406 21.601562 C 10.003906 21.726562 9.867188 21.792969 9.734375 21.769531 L 3.859375 20.664062 C 3.261719 20.558594 3.101562 20.496094 2.636719 20.714844 L 1.453125 21.269531 C 1.164062 21.410156 1.078125 21.449219 0.992188 21.796875 L 0.65625 23.101562 C 0.566406 23.453125 1.167969 23.628906 1.375 23.390625 C 1.582031 23.777344 1.9375 24.089844 2.386719 24.226562 L 8.675781 26.25 C 9.613281 26.554688 10.523438 25.910156 10.777344 25.167969 C 10.84375 24.960938 10.863281 24.75 10.84375 24.542969 C 11.265625 24.429688 11.652344 24.144531 11.808594 23.820312 L 12.203125 23.007812 L 12.613281 26.351562 C 12.78125 27.695312 13.867188 27.996094 15.03125 28.023438 L 20.167969 28.023438 C 20.234375 24.417969 19.265625 14.660156 14.835938 14.777344 C 13.4375 14.789062 12.925781 15.890625 12.441406 16.871094 L 8.082031 12.515625 C 7.378906 11.8125 6.453125 11.773438 5.722656 12.488281 Z M 5.722656 12.488281 " fill-opacity="1" fill-rule="nonzero"/></g><g clip-path="url(#958d2544d7)"><path fill="#b5820e" d="M 28.117188 11.054688 C 28.664062 12.457031 28.804688 14.214844 29.089844 16.046875 C 29.417969 18.128906 29.15625 19.542969 28.441406 21.269531 C 28.007812 22.3125 27.992188 23.195312 27.992188 24.347656 L 27.992188 28.023438 L 23.613281 28.023438 L 23.613281 17.105469 C 24.738281 17.398438 25.792969 16.804688 25.828125 15.589844 L 25.902344 10.898438 C 25.910156 10.554688 25.453125 10.539062 25.4375 10.871094 L 25.203125 15.558594 C 25.148438 16.328125 24.71875 16.628906 23.957031 16.53125 L 18.425781 16.027344 C 18.097656 15.996094 17.929688 15.886719 17.765625 15.671875 C 17.144531 14.886719 16.414062 14.441406 15.492188 14.363281 C 15.234375 14.339844 15.132812 14.09375 15.148438 13.894531 C 15.164062 13.691406 15.28125 13.476562 15.71875 13.394531 C 16.921875 13.167969 17.523438 13.433594 18.054688 13.777344 C 18.585938 14.121094 19.046875 14.679688 19.824219 14.703125 C 20.84375 14.730469 21.6875 14.660156 22.710938 14.636719 C 22.902344 14.648438 23.0625 14.484375 23.042969 14.289062 L 22.640625 10.324219 C 22.433594 8.25 24.773438 7.546875 26.042969 8.175781 C 26.855469 8.582031 27.566406 9.660156 28.117188 11.054688 Z M 28.117188 11.054688 " fill-opacity="1" fill-rule="nonzero"/></g></svg>